<svg width="92" height="100" viewBox="0 0 92 100" fill="none" xmlns="http://www.w3.org/2000/svg">
<g clip-path="url(#clip0_5_6)">
<path d="M28.8044 38.9095C22.9769 38.5288 17.2666 37.8657 11.6766 36.3461C11.8154 36.3092 11.9543 36.2478 12.0962 36.2417C13.1944 36.2018 14.2927 36.1741 15.394 36.1465C16.6928 36.1127 17.9915 36.1035 19.2903 36.0483C22.5326 35.904 25.7749 35.6676 29.0018 35.3053C39.4629 33.9514 50.2418 32.2967 59.5492 27.0561C59.9256 26.8351 60.2217 26.8075 60.5796 27.0746C63.1463 28.9903 65.7592 30.8507 68.2858 32.8186C78.2009 40.8774 87.1134 50.7629 91.8951 62.7268C92.1234 63.3101 92.0062 63.4605 91.4015 63.4513C85.0033 63.3869 78.6081 63.2671 72.2099 63.172C70.723 63.1474 69.236 63.1044 67.749 63.086C67.311 63.0799 67.0518 62.9509 66.9315 62.4781C66.1294 59.3221 65.2039 56.1999 64.0563 53.1483C61.8629 47.3767 59.1111 41.6418 54.7243 37.1811C54.2585 36.7114 53.7772 36.4351 53.0553 36.5947C51.0717 37.0307 49.0757 37.4083 47.0828 37.8074C46.6663 37.8903 46.4257 38.0745 46.4658 38.5534C46.6108 40.3709 46.7373 42.1914 46.8422 44.015C47.1414 50.1243 47.6505 56.2183 48.0515 62.3216C48.1163 63.3592 48.107 63.3562 47.0365 63.3623C40.8203 63.393 34.6041 63.4237 28.3879 63.4544C27.993 63.4697 27.4377 63.482 27.4933 62.9171C27.9869 54.9166 28.4342 46.9192 28.8044 38.9126V38.9095Z" fill="url(#paint0_linear_5_6)"/>
<path d="M6.70981 36.7114C6.0342 36.6039 5.80592 36.2171 5.64241 35.772C5.43263 35.2009 5.23211 34.6268 5.02233 34.0558C4.83415 33.5493 4.46087 33.2791 3.95802 33.0642C2.80732 32.5699 1.69365 31.9897 0.56455 31.4432C0.524445 31.4217 0.468916 31.4094 0.444236 31.3757C0.293072 31.1546 0.148079 30.9305 0 30.7095C1.0674 29.9512 2.47723 30.1047 3.61867 30.6542C4.05674 30.8722 4.53182 31.0165 4.96989 31.2345C5.61156 31.5507 6.22239 31.3757 6.84555 31.1915C7.69392 30.9428 8.54537 30.7064 9.39682 30.4608C9.44001 30.4485 9.48937 30.4086 9.52639 30.4178C9.77936 30.4762 10.0292 30.5468 10.2791 30.6112C9.60043 31.4494 8.52994 31.5537 7.75562 32.309C9.14077 33.1195 10.2884 34.2861 11.9697 34.0896C13.6664 33.8931 15.3477 33.5922 16.9828 33.0427C21.1259 31.6551 25.1549 29.9911 29.1777 28.2995C29.8409 28.0201 29.9983 27.7009 29.9088 27.007C29.588 24.0905 29.3257 21.1648 29.0789 18.2421C28.5637 12.3906 27.9714 6.54837 27.5951 0.684617C27.5642 0.135082 27.6753 0.0368408 28.2244 0.0368408C34.6288 0.0368408 41.0301 0.0368408 47.4345 0.0368408C47.8695 0.0368408 48.1009 0.359194 48.0453 0.804348C47.8849 2.10297 47.7461 3.40773 47.5888 4.70635C47.1353 8.01891 46.7898 11.3468 46.472 14.6747C46.364 15.7063 46.2345 16.7347 46.1357 17.7662C46.1141 17.9811 46.1944 18.2053 46.2252 18.4263C46.4504 18.371 46.7219 18.3803 46.8946 18.2544C49.0356 16.6672 51.2105 15.1199 53.2836 13.4467C55.8719 11.3591 58.309 9.09342 60.5364 6.61898C62.2269 4.73091 63.936 2.82136 65.1793 0.595586C65.3767 0.193412 65.6914 0.0307007 66.1387 0.0307007C74.6964 0.150432 83.3374 -0.190341 91.8581 0.162712C78.5187 17.7509 56.9208 26.9548 35.8196 31.6765C30.2852 32.9353 24.652 33.7703 19.0034 34.2922C15.1318 34.6637 11.1182 35.2316 7.3083 34.1694C6.99671 34.0742 6.41365 33.8593 6.47844 34.4027C6.56173 35.1856 6.75917 35.9132 6.71598 36.7083L6.70981 36.7114Z" fill="url(#paint1_linear_5_6)"/>
<path d="M28.3817 69.0787H38.3493V71.9952H34.9774V89.5005H31.7536V71.9952H28.3817V69.0787Z" fill="white"/>
<path d="M46.3517 89.5005C46.1758 88.9755 46.0586 88.6532 46.0586 86.9923V83.7841C46.0586 81.8868 45.4139 81.1869 43.9485 81.1869H42.8348V89.5005H39.611V69.0787H44.4791C47.8201 69.0787 49.2577 70.626 49.2577 73.7758V75.3815C49.2577 77.4814 48.5821 78.8537 47.1476 79.5229C48.761 80.1953 49.2886 81.7395 49.2886 83.8701V87.0199C49.2886 88.0115 49.3163 88.7422 49.6403 89.5005H46.3579H46.3517ZM42.8317 71.9952V78.2673H44.0935C45.2966 78.2673 46.0278 77.7423 46.0278 76.1091V74.0951C46.0278 72.6369 45.528 71.9952 44.3866 71.9952H42.8317Z" fill="white"/>
<path d="M61.684 89.5005H58.4293L57.871 85.795H53.913L53.3546 89.5005H50.393L53.6754 69.0787H58.3954L61.6778 89.5005H61.684ZM54.3232 83.0258H57.4298L55.875 72.6982L54.3202 83.0258H54.3232Z" fill="white"/>
<path d="M65.932 85.7367L68.3938 69.0787H71.3554L68.1902 89.5005H63.3838L60.2186 69.0787H63.4733L65.9351 85.7367H65.932Z" fill="white"/>
<path d="M75.9304 77.684H80.3573V80.6005H75.9304V86.5809H81.5018V89.4974H72.7066V69.0756H81.5018V71.9921H75.9304V77.6809V77.684Z" fill="white"/>
<path d="M83.3467 69.0787H86.5705V86.584H91.8766V89.5005H83.3467V69.0787Z" fill="white"/>
<path d="M48.2705 92.1315H49.3472L51.337 97.1694H50.2819L49.8778 96.0611H47.7461L47.342 97.1694H46.2776L48.2736 92.1315H48.2705ZM49.5601 95.1831L48.8073 93.1262L48.0546 95.1831H49.5601Z" fill="white"/>
<path d="M53.9623 92.9144C53.0152 92.9144 52.4568 93.7709 52.4568 94.6489C52.4568 95.5853 52.9844 96.4111 53.9623 96.4111C54.7706 96.4111 55.1901 95.9353 55.3012 95.3458H53.7248V94.4893H56.3408V94.8853C56.3408 96.2607 55.4524 97.2677 53.9623 97.2677C52.3427 97.2677 51.445 96.0305 51.445 94.6489C51.445 93.2674 52.4198 92.0302 53.9407 92.0302C55.1685 92.0302 55.9953 92.6626 56.2544 93.685H55.2271C55.0328 93.2244 54.6194 92.9144 53.9623 92.9144Z" fill="white"/>
<path d="M57.0473 92.1315H60.777V93.0095H58.0591V94.1608H60.6752V95.0388H58.0591V96.2914H60.8356V97.1694H57.0473V92.1315Z" fill="white"/>
<path d="M61.5729 92.1315H62.4984L65.1021 95.6006V92.1315H66.0647V97.1694H65.133L62.5293 93.7003V97.1694H61.576V92.1315H61.5729Z" fill="white"/>
<path d="M66.7433 94.6489C66.7433 93.2613 67.6688 92.0302 69.2237 92.0302C70.5101 92.0302 71.3122 92.8008 71.5312 93.8139H70.5039C70.3219 93.3319 69.9486 92.9144 69.2329 92.9144C68.3013 92.9144 67.7583 93.7341 67.7583 94.6489C67.7583 95.5638 68.3013 96.3835 69.2329 96.3835C69.9486 96.3835 70.325 95.966 70.5039 95.484H71.5312C71.3153 96.4971 70.5132 97.2677 69.2237 97.2677C67.6688 97.2677 66.7433 96.0366 66.7433 94.6489Z" fill="white"/>
<path d="M73.3143 95.2046L71.4911 92.1315H72.6048L73.8203 94.2529L75.0265 92.1315H76.1402L74.3262 95.2046V97.1694H73.3143V95.2046Z" fill="white"/>
</g>
<defs>
<linearGradient id="paint0_linear_5_6" x1="-13.108" y1="37.5219" x2="113.524" y2="54.6153" gradientUnits="userSpaceOnUse">
<stop stop-color="#D2C6A4"/>
<stop offset="1" stop-color="#A88771"/>
</linearGradient>
<linearGradient id="paint1_linear_5_6" x1="-9.47086" y1="10.5824" x2="117.161" y2="27.6759" gradientUnits="userSpaceOnUse">
<stop stop-color="#D2C6A4"/>
<stop offset="1" stop-color="#A88771"/>
</linearGradient>
<clipPath id="clip0_5_6">
<rect width="92" height="100" fill="white"/>
</clipPath>
</defs>
</svg>
