<svg width="968" height="207" viewBox="0 0 968 207" fill="none" xmlns="http://www.w3.org/2000/svg">
<path d="M93.37 126.749C74.48 125.509 55.97 123.349 37.85 118.399C38.3 118.279 38.75 118.079 39.21 118.059C42.77 117.929 46.33 117.839 49.9 117.749C54.11 117.639 58.32 117.609 62.53 117.429C73.04 116.959 83.55 116.189 94.01 115.009C127.92 110.599 162.86 105.209 193.03 88.1388C194.25 87.4188 195.21 87.3288 196.37 88.1988C204.69 94.4388 213.16 100.499 221.35 106.909C253.49 133.159 282.38 165.359 297.88 204.329C298.62 206.229 298.24 206.719 296.28 206.689C275.54 206.479 254.81 206.089 234.07 205.779C229.25 205.699 224.43 205.559 219.61 205.499C218.19 205.479 217.35 205.059 216.96 203.519C214.36 193.239 211.36 183.069 207.64 173.129C200.53 154.329 191.61 135.649 177.39 121.119C175.88 119.589 174.32 118.689 171.98 119.209C165.55 120.629 159.08 121.859 152.62 123.159C151.27 123.429 150.49 124.029 150.62 125.589C151.09 131.509 151.5 137.439 151.84 143.379C152.81 163.279 154.46 183.129 155.76 203.009C155.97 206.389 155.94 206.379 152.47 206.399C132.32 206.499 112.17 206.599 92.02 206.699C90.74 206.749 88.94 206.789 89.12 204.949C90.72 178.889 92.17 152.839 93.37 126.759V126.749Z" fill="url(#paint0_linear_20_136)"/>
<path d="M21.75 119.589C19.56 119.239 18.82 117.979 18.29 116.529C17.61 114.669 16.96 112.799 16.28 110.939C15.67 109.289 14.46 108.409 12.83 107.709C9.1 106.099 5.49 104.209 1.83 102.429C1.7 102.359 1.52 102.319 1.44 102.209C0.95 101.489 0.48 100.759 0 100.039C3.46 97.5688 8.03 98.0688 11.73 99.8588C13.15 100.569 14.69 101.039 16.11 101.749C18.19 102.779 20.17 102.209 22.19 101.609C24.94 100.799 27.7 100.029 30.46 99.2288C30.6 99.1888 30.76 99.0588 30.88 99.0888C31.7 99.2788 32.51 99.5088 33.32 99.7188C31.12 102.449 27.65 102.789 25.14 105.249C29.63 107.889 33.35 111.689 38.8 111.049C44.3 110.409 49.75 109.429 55.05 107.639C68.48 103.119 81.54 97.6988 94.58 92.1888C96.73 91.2788 97.24 90.2388 96.95 87.9788C95.91 78.4788 95.06 68.9488 94.26 59.4288C92.59 40.3688 90.67 21.3388 89.45 2.23882C89.35 0.448824 89.71 0.128824 91.49 0.128824C112.25 0.128824 133 0.128824 153.76 0.128824C155.17 0.128824 155.92 1.17882 155.74 2.62882C155.22 6.85882 154.77 11.1088 154.26 15.3388C152.79 26.1288 151.67 36.9688 150.64 47.8088C150.29 51.1688 149.87 54.5188 149.55 57.8788C149.48 58.5788 149.74 59.3088 149.84 60.0288C150.57 59.8488 151.45 59.8788 152.01 59.4688C158.95 54.2988 166 49.2588 172.72 43.8088C181.11 37.0088 189.01 29.6288 196.23 21.5688C201.71 15.4188 207.25 9.19882 211.28 1.94882C211.92 0.638824 212.94 0.108824 214.39 0.108824C242.13 0.498824 270.14 -0.611176 297.76 0.538824C254.52 57.8288 184.51 87.8088 116.11 103.189C98.17 107.289 79.91 110.009 61.6 111.709C49.05 112.919 36.04 114.769 23.69 111.309C22.68 110.999 20.79 110.299 21 112.069C21.27 114.619 21.91 116.989 21.77 119.579L21.75 119.589Z" fill="url(#paint1_linear_20_136)"/>
<path d="M327 0.039917H427.529V29.598H393.521V207.009H361.007V29.598H327V0.039917Z" fill="#002740"/>
<path d="M508.238 207.009C506.464 201.688 505.282 198.421 505.282 181.589V149.075C505.282 129.847 498.779 122.753 484 122.753H472.768V207.009H440.254V0.039917H489.352C523.048 0.039917 537.547 15.7213 537.547 47.644V63.9165C537.547 85.1983 530.733 99.1062 516.265 105.889C532.538 112.703 537.858 128.353 537.858 149.946V181.869C537.858 191.919 538.138 199.324 541.405 207.009H508.3H508.238ZM472.737 29.598V93.1634H485.463C497.597 93.1634 504.971 87.843 504.971 71.2905V50.8798C504.971 36.1008 499.93 29.598 488.418 29.598H472.737Z" fill="#002740"/>
<path d="M662.873 207.009H630.048L624.417 169.454H584.498L578.866 207.009H548.997L582.102 0.039917H629.706L662.811 207.009H662.873ZM588.636 141.39H619.967L604.286 36.723L588.605 141.39H588.636Z" fill="#002740"/>
<path d="M705.717 168.863L730.546 0.039917H760.415L728.492 207.009H680.017L648.094 0.039917H680.919L705.748 168.863H705.717Z" fill="#002740"/>
<path d="M806.557 87.2519H851.205V116.81H806.557V177.42H862.748V206.978H774.043V0.00878906H862.748V29.5669H806.557V87.2207V87.2519Z" fill="#002740"/>
<path d="M881.354 0.039917H913.868V177.451H967.384V207.009H881.354V0.039917Z" fill="#002740"/>
<defs>
<linearGradient id="paint0_linear_20_136" x1="-42.49" y1="122.229" x2="368.06" y2="177.379" gradientUnits="userSpaceOnUse">
<stop stop-color="#D2C6A4"/>
<stop offset="1" stop-color="#A88771"/>
</linearGradient>
<linearGradient id="paint1_linear_20_136" x1="-30.7" y1="34.4788" x2="379.85" y2="89.6288" gradientUnits="userSpaceOnUse">
<stop stop-color="#D2C6A4"/>
<stop offset="1" stop-color="#A88771"/>
</linearGradient>
</defs>
</svg>
