<svg width="299" height="326" viewBox="0 0 299 326" fill="none" xmlns="http://www.w3.org/2000/svg">
<g clip-path="url(#clip0_20_60)">
<path d="M93.37 126.74C74.48 125.5 55.97 123.34 37.85 118.39C38.3 118.27 38.75 118.07 39.21 118.05C42.77 117.92 46.33 117.83 49.9 117.74C54.11 117.63 58.32 117.6 62.53 117.42C73.04 116.95 83.55 116.18 94.01 115C127.92 110.59 162.86 105.2 193.03 88.13C194.25 87.41 195.21 87.32 196.37 88.19C204.69 94.43 213.16 100.49 221.35 106.9C253.49 133.15 282.38 165.35 297.88 204.32C298.62 206.22 298.24 206.71 296.28 206.68C275.54 206.47 254.81 206.08 234.07 205.77C229.25 205.69 224.43 205.55 219.61 205.49C218.19 205.47 217.35 205.05 216.96 203.51C214.36 193.23 211.36 183.06 207.64 173.12C200.53 154.32 191.61 135.64 177.39 121.11C175.88 119.58 174.32 118.68 171.98 119.2C165.55 120.62 159.08 121.85 152.62 123.15C151.27 123.42 150.49 124.02 150.62 125.58C151.09 131.5 151.5 137.43 151.84 143.37C152.81 163.27 154.46 183.12 155.76 203C155.97 206.38 155.94 206.37 152.47 206.39C132.32 206.49 112.17 206.59 92.02 206.69C90.74 206.74 88.94 206.78 89.12 204.94C90.72 178.88 92.17 152.83 93.37 126.75V126.74Z" fill="url(#paint0_linear_20_60)"/>
<path d="M21.75 119.58C19.56 119.23 18.82 117.97 18.29 116.52C17.61 114.66 16.96 112.79 16.28 110.93C15.67 109.28 14.46 108.4 12.83 107.7C9.1 106.09 5.49 104.2 1.83 102.42C1.7 102.35 1.52 102.31 1.44 102.2C0.95 101.48 0.48 100.75 0 100.03C3.46 97.56 8.03 98.06 11.73 99.85C13.15 100.56 14.69 101.03 16.11 101.74C18.19 102.77 20.17 102.2 22.19 101.6C24.94 100.79 27.7 100.02 30.46 99.22C30.6 99.18 30.76 99.05 30.88 99.08C31.7 99.27 32.51 99.5 33.32 99.71C31.12 102.44 27.65 102.78 25.14 105.24C29.63 107.88 33.35 111.68 38.8 111.04C44.3 110.4 49.75 109.42 55.05 107.63C68.48 103.11 81.54 97.69 94.58 92.18C96.73 91.27 97.24 90.23 96.95 87.97C95.91 78.47 95.06 68.94 94.26 59.42C92.59 40.36 90.67 21.33 89.45 2.23003C89.35 0.440035 89.71 0.120035 91.49 0.120035C112.25 0.120035 133 0.120035 153.76 0.120035C155.17 0.120035 155.92 1.17003 155.74 2.62003C155.22 6.85003 154.77 11.1 154.26 15.33C152.79 26.12 151.67 36.96 150.64 47.8C150.29 51.16 149.87 54.51 149.55 57.87C149.48 58.57 149.74 59.3 149.84 60.02C150.57 59.84 151.45 59.87 152.01 59.46C158.95 54.29 166 49.25 172.72 43.8C181.11 37 189.01 29.62 196.23 21.56C201.71 15.41 207.25 9.19003 211.28 1.94003C211.92 0.630035 212.94 0.100035 214.39 0.100035C242.13 0.490034 270.14 -0.619965 297.76 0.530034C254.52 57.82 184.51 87.8 116.11 103.18C98.17 107.28 79.91 110 61.6 111.7C49.05 112.91 36.04 114.76 23.69 111.3C22.68 110.99 20.79 110.29 21 112.06C21.27 114.61 21.91 116.98 21.77 119.57L21.75 119.58Z" fill="url(#paint1_linear_20_60)"/>
<path d="M92 225.01H124.31V234.51H113.38V291.53H102.93V234.51H92V225.01Z" fill="#002740"/>
<path d="M150.25 291.53C149.68 289.82 149.3 288.77 149.3 283.36V272.91C149.3 266.73 147.21 264.45 142.46 264.45H138.85V291.53H128.4V225.01H144.18C155.01 225.01 159.67 230.05 159.67 240.31V245.54C159.67 252.38 157.48 256.85 152.83 259.03C158.06 261.22 159.77 266.25 159.77 273.19V283.45C159.77 286.68 159.86 289.06 160.91 291.53H150.27H150.25ZM138.84 234.51V254.94H142.93C146.83 254.94 149.2 253.23 149.2 247.91V241.35C149.2 236.6 147.58 234.51 143.88 234.51H138.84Z" fill="#002740"/>
<path d="M199.95 291.53H189.4L187.59 279.46H174.76L172.95 291.53H163.35L173.99 225.01H189.29L199.93 291.53H199.95ZM176.09 270.44H186.16L181.12 236.8L176.08 270.44H176.09Z" fill="#002740"/>
<path d="M213.72 279.27L221.7 225.01H231.3L221.04 291.53H205.46L195.2 225.01H205.75L213.73 279.27H213.72Z" fill="#002740"/>
<path d="M246.13 253.04H260.48V262.54H246.13V282.02H264.19V291.52H235.68V225H264.19V234.5H246.13V253.03V253.04Z" fill="#002740"/>
<path d="M270.17 225.01H280.62V282.03H297.82V291.53H270.17V225.01Z" fill="#002740"/>
<path d="M156.47 300.1H159.96L166.41 316.51H162.99L161.68 312.9H154.77L153.46 316.51H150.01L156.48 300.1H156.47ZM160.65 310.04L158.21 303.34L155.77 310.04H160.65Z" fill="#002740"/>
<path d="M174.92 302.65C171.85 302.65 170.04 305.44 170.04 308.3C170.04 311.35 171.75 314.04 174.92 314.04C177.54 314.04 178.9 312.49 179.26 310.57H174.15V307.78H182.63V309.07C182.63 313.55 179.75 316.83 174.92 316.83C169.67 316.83 166.76 312.8 166.76 308.3C166.76 303.8 169.92 299.77 174.85 299.77C178.83 299.77 181.51 301.83 182.35 305.16H179.02C178.39 303.66 177.05 302.65 174.92 302.65Z" fill="#002740"/>
<path d="M184.92 300.1H197.01V302.96H188.2V306.71H196.68V309.57H188.2V313.65H197.2V316.51H184.92V300.1Z" fill="#002740"/>
<path d="M199.59 300.1H202.59L211.03 311.4V300.1H214.15V316.51H211.13L202.69 305.21V316.51H199.6V300.1H199.59Z" fill="#002740"/>
<path d="M216.35 308.3C216.35 303.78 219.35 299.77 224.39 299.77C228.56 299.77 231.16 302.28 231.87 305.58H228.54C227.95 304.01 226.74 302.65 224.42 302.65C221.4 302.65 219.64 305.32 219.64 308.3C219.64 311.28 221.4 313.95 224.42 313.95C226.74 313.95 227.96 312.59 228.54 311.02H231.87C231.17 314.32 228.57 316.83 224.39 316.83C219.35 316.83 216.35 312.82 216.35 308.3Z" fill="#002740"/>
<path d="M237.65 310.11L231.74 300.1H235.35L239.29 307.01L243.2 300.1H246.81L240.93 310.11V316.51H237.65V310.11Z" fill="#002740"/>
</g>
<defs>
<linearGradient id="paint0_linear_20_60" x1="-42.49" y1="122.22" x2="368.06" y2="177.37" gradientUnits="userSpaceOnUse">
<stop stop-color="#D2C6A4"/>
<stop offset="1" stop-color="#A88771"/>
</linearGradient>
<linearGradient id="paint1_linear_20_60" x1="-30.7" y1="34.47" x2="379.85" y2="89.62" gradientUnits="userSpaceOnUse">
<stop stop-color="#D2C6A4"/>
<stop offset="1" stop-color="#A88771"/>
</linearGradient>
<clipPath id="clip0_20_60">
<rect width="298.22" height="325.73" fill="white"/>
</clipPath>
</defs>
</svg>
