<svg width="61" height="53" viewBox="0 0 61 53" fill="none" xmlns="http://www.w3.org/2000/svg">
<path d="M6.12777 0.09375C3.85908 0.0936579 2.06345 1.92518 2.06342 4.15824V50.873H1.04783C-0.307611 50.873 -0.307611 52.9063 1.04783 52.9063H59.9522C61.3076 52.9063 61.3076 50.873 59.9522 50.873H58.9366V4.15824C58.9366 1.92518 57.1409 0.0936579 54.8722 0.09375H6.12777ZM6.12777 2.125H54.8722C56.0151 2.12496 56.9054 3.03519 56.9054 4.15824V6.1875H4.09461V4.15824C4.09462 3.03519 4.98494 2.12496 6.12777 2.125ZM4.09461 8.21875H56.9054V12.2813H4.09461V8.21875ZM4.09461 14.3125H56.9054V16.3438H51.8235C51.2624 16.3458 50.8097 16.8023 50.8118 17.3633V21.4258C50.8138 21.984 51.2653 22.4355 51.8235 22.4375H56.9054V38.6875H28.4668L28.4689 25.4784C28.4692 23.2564 26.6751 21.4213 24.4025 21.4219C20.3428 21.4248 16.283 21.4232 12.2233 21.4219C9.95066 21.4213 8.15659 23.2564 8.15697 25.4784L8.15896 38.6875H4.09461V14.3125ZM31.5116 16.3438C30.9506 16.3458 30.4978 16.8023 30.5 17.3633V21.4258C30.5019 21.984 30.9535 22.4355 31.5116 22.4375H37.6131C38.1713 22.4356 38.6228 21.984 38.6247 21.4258V17.3633C38.6269 16.8023 38.1742 16.3457 37.6131 16.3438H31.5116ZM41.6675 16.3438C41.1065 16.3458 40.6538 16.8023 40.6559 17.3633V21.4258C40.6579 21.984 41.1094 22.4355 41.6675 22.4375H47.769C48.3272 22.4356 48.7787 21.984 48.7807 21.4258V17.3633C48.7828 16.8023 48.3301 16.3457 47.769 16.3438H41.6675ZM32.5332 18.375H36.5936V20.4062H32.5332V18.375ZM42.6871 18.375H46.7495V20.4062H42.6871V18.375ZM52.845 18.375H56.9054V20.4062H52.845V18.375ZM17.2973 23.4531V38.6875H10.1921L10.1883 25.4784C10.1881 24.3468 11.1044 23.4528 12.2234 23.4531C13.9146 23.4543 15.606 23.4531 17.2973 23.4531ZM19.3285 23.4531C21.0198 23.4528 22.7111 23.4537 24.4025 23.4531C25.5215 23.4528 26.4378 24.3468 26.4376 25.4784L26.4338 38.6875H19.3286L19.3285 23.4531ZM14.2327 29.529C13.671 29.539 13.2239 30.0028 13.2349 30.5645V31.5761C13.2042 32.9607 15.2968 32.9607 15.2661 31.5761V30.5645C15.2773 29.9888 14.8084 29.5189 14.2327 29.529ZM22.3594 29.529C21.7977 29.539 21.3507 30.0028 21.3617 30.5645V31.5761C21.3912 32.9006 23.3635 32.9006 23.3928 31.5761V30.5645C23.404 29.9888 22.9351 29.5189 22.3594 29.529ZM4.09461 40.7187H14.2505V44.7812H4.09461V40.7187ZM16.2817 40.7187H26.4376V44.7812H16.2817V40.7187ZM28.4688 40.7187H38.6247V44.7812H28.4688V40.7187ZM40.6559 40.7187H50.8118V44.7812H40.6559V40.7187ZM52.843 40.7187H56.9054V44.7812H52.843V40.7187ZM4.09461 46.8125H8.15697V50.873H4.09461V46.8125ZM10.1882 46.8125H20.3441V50.873H10.1882V46.8125ZM22.3753 46.8125H32.5312V50.873H22.3753V46.8125ZM34.5624 46.8125H44.7183V50.873H34.5624V46.8125ZM46.7495 46.8125H56.9054V50.873H46.7495V46.8125Z" fill="#27348B"/>
</svg>
