<svg width="62" height="53" viewBox="0 0 62 53" fill="none" xmlns="http://www.w3.org/2000/svg">
<path d="M6.62777 0.09375C4.35908 0.0936579 2.56345 1.92518 2.56342 4.15824V50.873H1.54783C0.192389 50.873 0.192389 52.9063 1.54783 52.9063H60.4522C61.8076 52.9063 61.8076 50.873 60.4522 50.873H59.4366V4.15824C59.4366 1.92518 57.6409 0.0936579 55.3722 0.09375H6.62777ZM6.62777 2.125H55.3722C56.5151 2.12496 57.4054 3.03519 57.4054 4.15824V6.1875H4.59461V4.15824C4.59462 3.03519 5.48494 2.12496 6.62777 2.125ZM4.59461 8.21875H57.4054V12.2813H4.59461V8.21875ZM4.59461 14.3125H57.4054V16.3438H52.3235C51.7624 16.3458 51.3097 16.8023 51.3118 17.3633V21.4258C51.3138 21.984 51.7653 22.4355 52.3235 22.4375H57.4054V38.6875H28.9668L28.9689 25.4784C28.9692 23.2564 27.1751 21.4213 24.9025 21.4219C20.8428 21.4248 16.783 21.4232 12.7233 21.4219C10.4507 21.4213 8.65659 23.2564 8.65697 25.4784L8.65896 38.6875H4.59461V14.3125ZM32.0116 16.3438C31.4506 16.3458 30.9978 16.8023 31 17.3633V21.4258C31.0019 21.984 31.4535 22.4355 32.0116 22.4375H38.1131C38.6713 22.4356 39.1228 21.984 39.1247 21.4258V17.3633C39.1269 16.8023 38.6742 16.3457 38.1131 16.3438H32.0116ZM42.1675 16.3438C41.6065 16.3458 41.1538 16.8023 41.1559 17.3633V21.4258C41.1579 21.984 41.6094 22.4355 42.1675 22.4375H48.269C48.8272 22.4356 49.2787 21.984 49.2807 21.4258V17.3633C49.2828 16.8023 48.8301 16.3457 48.269 16.3438H42.1675ZM33.0332 18.375H37.0936V20.4062H33.0332V18.375ZM43.1871 18.375H47.2495V20.4062H43.1871V18.375ZM53.345 18.375H57.4054V20.4062H53.345V18.375ZM17.7973 23.4531V38.6875H10.6921L10.6883 25.4784C10.6881 24.3468 11.6044 23.4528 12.7234 23.4531C14.4146 23.4543 16.106 23.4531 17.7973 23.4531ZM19.8285 23.4531C21.5198 23.4528 23.2111 23.4537 24.9025 23.4531C26.0215 23.4528 26.9378 24.3468 26.9376 25.4784L26.9338 38.6875H19.8286L19.8285 23.4531ZM14.7327 29.529C14.171 29.539 13.7239 30.0028 13.7349 30.5645V31.5761C13.7042 32.9607 15.7968 32.9607 15.7661 31.5761V30.5645C15.7773 29.9888 15.3084 29.5189 14.7327 29.529ZM22.8594 29.529C22.2977 29.539 21.8507 30.0028 21.8617 30.5645V31.5761C21.8912 32.9006 23.8635 32.9006 23.8928 31.5761V30.5645C23.904 29.9888 23.4351 29.5189 22.8594 29.529ZM4.59461 40.7187H14.7505V44.7812H4.59461V40.7187ZM16.7817 40.7187H26.9376V44.7812H16.7817V40.7187ZM28.9688 40.7187H39.1247V44.7812H28.9688V40.7187ZM41.1559 40.7187H51.3118V44.7812H41.1559V40.7187ZM53.343 40.7187H57.4054V44.7812H53.343V40.7187ZM4.59461 46.8125H8.65697V50.873H4.59461V46.8125ZM10.6882 46.8125H20.8441V50.873H10.6882V46.8125ZM22.8753 46.8125H33.0312V50.873H22.8753V46.8125ZM35.0624 46.8125H45.2183V50.873H35.0624V46.8125ZM47.2495 46.8125H57.4054V50.873H47.2495V46.8125Z" fill="#A88771"/>
</svg>
